<mxfile host="app.diagrams.net" modified="2021-09-28T05:21:07.901Z" agent="5.0 (Windows NT 10.0; Win64; x64) AppleWebKit/537.36 (KHTML, like Gecko) Chrome/93.0.4577.82 Safari/537.36" etag="rCJSRRS9W_C7Gyy4WOj2" version="15.3.4" type="github">
  <diagram id="6a731a19-8d31-9384-78a2-239565b7b9f0" name="Page-1">
    <mxGraphModel dx="1422" dy="826" grid="1" gridSize="10" guides="1" tooltips="1" connect="1" arrows="1" fold="1" page="1" pageScale="1" pageWidth="1169" pageHeight="827" background="#003469" math="0" shadow="0">
      <root>
        <mxCell id="0" />
        <mxCell id="1" parent="0" />
        <mxCell id="2019" value="" style="rounded=1;whiteSpace=wrap;html=1;dashed=1;strokeColor=none;strokeWidth=2;fillColor=#E6E6E6;fontFamily=Verdana;fontSize=12;fontColor=#00BEF2" parent="1" vertex="1">
          <mxGeometry x="40" y="120" width="165" height="670" as="geometry" />
        </mxCell>
        <mxCell id="2020" value="" style="rounded=1;whiteSpace=wrap;html=1;dashed=1;strokeColor=none;strokeWidth=2;fillColor=#E6E6E6;fontFamily=Verdana;fontSize=12;fontColor=#00BEF2" parent="1" vertex="1">
          <mxGeometry x="220" y="120" width="165" height="670" as="geometry" />
        </mxCell>
        <mxCell id="2021" value="" style="rounded=1;whiteSpace=wrap;html=1;dashed=1;strokeColor=none;strokeWidth=2;fillColor=#E6E6E6;fontFamily=Verdana;fontSize=12;fontColor=#00BEF2" parent="1" vertex="1">
          <mxGeometry x="400" y="120" width="165" height="670" as="geometry" />
        </mxCell>
        <mxCell id="2022" value="" style="rounded=1;whiteSpace=wrap;html=1;dashed=1;strokeColor=none;strokeWidth=2;fillColor=#E6E6E6;fontFamily=Verdana;fontSize=12;fontColor=#00BEF2" parent="1" vertex="1">
          <mxGeometry x="580" y="120" width="165" height="670" as="geometry" />
        </mxCell>
        <mxCell id="2023" value="" style="rounded=1;whiteSpace=wrap;html=1;dashed=1;strokeColor=none;strokeWidth=2;fillColor=#E6E6E6;fontFamily=Verdana;fontSize=12;fontColor=#00BEF2" parent="1" vertex="1">
          <mxGeometry x="760" y="120" width="165" height="670" as="geometry" />
        </mxCell>
        <mxCell id="2024" value="" style="rounded=1;whiteSpace=wrap;html=1;dashed=1;strokeColor=none;strokeWidth=2;fillColor=#E6E6E6;fontFamily=Verdana;fontSize=12;fontColor=#00BEF2" parent="1" vertex="1">
          <mxGeometry x="940" y="120" width="165" height="670" as="geometry" />
        </mxCell>
        <mxCell id="2025" value="蜜罐中心" style="whiteSpace=wrap;html=1;dashed=1;strokeColor=none;strokeWidth=2;fillColor=#3399FF;fontFamily=Helvetica;fontSize=18;fontColor=#FFFFFF;fontStyle=1" parent="1" vertex="1">
          <mxGeometry x="40" y="120" width="165" height="60" as="geometry" />
        </mxCell>
        <mxCell id="2026" value="全球节点" style="whiteSpace=wrap;html=1;dashed=1;strokeColor=none;strokeWidth=2;fillColor=#3399FF;fontFamily=Helvetica;fontSize=18;fontColor=#FFFFFF;fontStyle=1" parent="1" vertex="1">
          <mxGeometry x="220" y="120" width="165" height="60" as="geometry" />
        </mxCell>
        <mxCell id="2027" value="威胁情报收集" style="whiteSpace=wrap;html=1;dashed=1;strokeColor=none;strokeWidth=2;fillColor=#3399FF;fontFamily=Helvetica;fontSize=18;fontColor=#FFFFFF;fontStyle=1" parent="1" vertex="1">
          <mxGeometry x="400" y="120" width="165" height="60" as="geometry" />
        </mxCell>
        <mxCell id="2028" value="攻击行为分析&lt;br&gt;引擎" style="whiteSpace=wrap;html=1;dashed=1;strokeColor=none;strokeWidth=2;fillColor=#3399FF;fontFamily=Helvetica;fontSize=18;fontColor=#FFFFFF;fontStyle=1" parent="1" vertex="1">
          <mxGeometry x="580" y="120" width="165" height="60" as="geometry" />
        </mxCell>
        <mxCell id="2029" value="App&lt;div&gt;Services&lt;/div&gt;" style="whiteSpace=wrap;html=1;dashed=1;strokeColor=none;strokeWidth=2;fillColor=#3399FF;fontFamily=Helvetica;fontSize=18;fontColor=#FFFFFF;fontStyle=1" parent="1" vertex="1">
          <mxGeometry x="760" y="120" width="165" height="60" as="geometry" />
        </mxCell>
        <mxCell id="2030" value="&amp;nbsp; &amp;nbsp;Presentation" style="whiteSpace=wrap;html=1;dashed=1;strokeColor=none;strokeWidth=2;fillColor=#3399FF;fontFamily=Helvetica;fontSize=18;fontColor=#FFFFFF;fontStyle=1" parent="1" vertex="1">
          <mxGeometry x="940" y="120" width="165" height="60" as="geometry" />
        </mxCell>
        <mxCell id="2031" value="" style="shape=mxgraph.arrows.two_way_arrow_horizontal;html=1;verticalLabelPosition=bottom;verticalAlign=top;strokeWidth=2;strokeColor=none;dashed=1;fillColor=#FFFFFF;fontFamily=Verdana;fontSize=12;fontColor=#00BEF2" parent="1" vertex="1">
          <mxGeometry x="180" y="131" width="67" height="39" as="geometry" />
        </mxCell>
        <mxCell id="2032" value="" style="shape=mxgraph.arrows.two_way_arrow_horizontal;html=1;verticalLabelPosition=bottom;verticalAlign=top;strokeWidth=2;strokeColor=none;dashed=1;fillColor=#FFFFFF;fontFamily=Verdana;fontSize=12;fontColor=#00BEF2" parent="1" vertex="1">
          <mxGeometry x="360" y="131" width="67" height="39" as="geometry" />
        </mxCell>
        <mxCell id="2033" value="" style="shape=mxgraph.arrows.two_way_arrow_horizontal;html=1;verticalLabelPosition=bottom;verticalAlign=top;strokeWidth=2;strokeColor=none;dashed=1;fillColor=#FFFFFF;fontFamily=Verdana;fontSize=12;fontColor=#00BEF2" parent="1" vertex="1">
          <mxGeometry x="540" y="131" width="67" height="39" as="geometry" />
        </mxCell>
        <mxCell id="2034" value="" style="shape=mxgraph.arrows.two_way_arrow_horizontal;html=1;verticalLabelPosition=bottom;verticalAlign=top;strokeWidth=2;strokeColor=none;dashed=1;fillColor=#FFFFFF;fontFamily=Verdana;fontSize=12;fontColor=#00BEF2" parent="1" vertex="1">
          <mxGeometry x="720" y="131" width="67" height="39" as="geometry" />
        </mxCell>
        <mxCell id="2035" value="" style="shape=mxgraph.arrows.two_way_arrow_horizontal;html=1;verticalLabelPosition=bottom;verticalAlign=top;strokeWidth=2;strokeColor=none;dashed=1;fillColor=#FFFFFF;fontFamily=Verdana;fontSize=12;fontColor=#00BEF2" parent="1" vertex="1">
          <mxGeometry x="900" y="131" width="67" height="39" as="geometry" />
        </mxCell>
        <mxCell id="2036" value="" style="verticalLabelPosition=bottom;html=1;verticalAlign=top;strokeColor=none;fillColor=#003366;shape=mxgraph.azure.cloud_service;dashed=1;fontFamily=Helvetica;fontSize=18;fontColor=#FFFFFF;opacity=25" parent="1" vertex="1">
          <mxGeometry x="85" y="172.25" width="970" height="600" as="geometry" />
        </mxCell>
        <mxCell id="2047" value="哨兵威胁情报系统" style="text;html=1;strokeColor=none;fillColor=none;align=center;verticalAlign=middle;whiteSpace=wrap;overflow=hidden;dashed=1;fontSize=36;fontColor=#FFFFFF;fontFamily=Helvetica;fontStyle=1" parent="1" vertex="1">
          <mxGeometry x="40" y="50" width="1060" height="50" as="geometry" />
        </mxCell>
        <mxCell id="2048" value="国内节点" style="rounded=1;whiteSpace=wrap;html=1;dashed=1;strokeColor=none;strokeWidth=2;fillColor=#FFFFFF;fontFamily=Helvetica;fontSize=14;fontColor=#FFB366;opacity=75;verticalAlign=top;fontStyle=1" parent="1" vertex="1">
          <mxGeometry x="233.25" y="186" width="140" height="294" as="geometry" />
        </mxCell>
        <mxCell id="2049" value="事件分析" style="rounded=1;whiteSpace=wrap;html=1;dashed=1;strokeColor=#9673a6;strokeWidth=2;fillColor=#e1d5e7;fontFamily=Helvetica;fontSize=14;opacity=75;verticalAlign=top;fontStyle=1" parent="1" vertex="1">
          <mxGeometry x="412" y="451.62" width="140" height="320" as="geometry" />
        </mxCell>
        <mxCell id="2054" value="漏洞利用分析" style="verticalLabelPosition=bottom;html=1;verticalAlign=top;strokeColor=none;fillColor=#3399FF;shape=mxgraph.azure.storage_blob;dashed=1;fontFamily=Helvetica;fontSize=14;fontColor=#004C99" parent="1" vertex="1">
          <mxGeometry x="457" y="523" width="50" height="45" as="geometry" />
        </mxCell>
        <mxCell id="2055" value="国外节点" style="rounded=1;whiteSpace=wrap;html=1;dashed=1;strokeColor=#6c8ebf;strokeWidth=2;fillColor=#dae8fc;fontFamily=Helvetica;fontSize=14;opacity=75;verticalAlign=top;fontStyle=1" parent="1" vertex="1">
          <mxGeometry x="232.5" y="499" width="140" height="280" as="geometry" />
        </mxCell>
        <mxCell id="2056" value="全球攻击态势分析" style="verticalLabelPosition=bottom;html=1;verticalAlign=top;strokeColor=none;fillColor=#3399FF;shape=mxgraph.azure.server_rack;dashed=1;fontFamily=Helvetica;fontSize=14;fontColor=#004C99" parent="1" vertex="1">
          <mxGeometry x="637.5" y="225" width="50" height="50" as="geometry" />
        </mxCell>
        <mxCell id="2057" value="黑产组织划分" style="verticalLabelPosition=bottom;html=1;verticalAlign=top;strokeColor=none;fillColor=#3399FF;shape=mxgraph.azure.database;dashed=1;fontFamily=Helvetica;fontSize=14;fontColor=#004C99" parent="1" vertex="1">
          <mxGeometry x="643" y="326" width="37.5" height="50" as="geometry" />
        </mxCell>
        <mxCell id="2058" value="攻击传播分析" style="verticalLabelPosition=bottom;html=1;verticalAlign=top;strokeColor=none;fillColor=#3399FF;shape=mxgraph.azure.vhd;dashed=1;fontFamily=Helvetica;fontSize=14;fontColor=#004C99" parent="1" vertex="1">
          <mxGeometry x="643" y="426" width="40" height="50" as="geometry" />
        </mxCell>
        <mxCell id="2059" value="&lt;font color=&quot;#000000&quot;&gt;防火墙&lt;/font&gt;" style="rounded=1;whiteSpace=wrap;html=1;dashed=1;strokeColor=#b85450;strokeWidth=2;fillColor=#f8cecc;fontFamily=Helvetica;fontSize=14;opacity=75;verticalAlign=top;fontStyle=1" parent="1" vertex="1">
          <mxGeometry x="773" y="196" width="147" height="194" as="geometry" />
        </mxCell>
        <mxCell id="2060" value="攻击预警" style="verticalLabelPosition=bottom;html=1;verticalAlign=top;strokeColor=none;fillColor=#3399FF;shape=mxgraph.azure.azure_active_directory;dashed=1;fontFamily=Helvetica;fontSize=14;fontColor=#004C99" parent="1" vertex="1">
          <mxGeometry x="638" y="639.5" width="47.5" height="50" as="geometry" />
        </mxCell>
        <mxCell id="2061" value="腾讯节点" style="rounded=1;whiteSpace=wrap;html=1;dashed=1;strokeColor=#d6b656;strokeWidth=2;fillColor=#fff2cc;fontFamily=Helvetica;fontSize=14;opacity=75;verticalAlign=top;fontStyle=1" parent="1" vertex="1">
          <mxGeometry x="240" y="210" width="120" height="80" as="geometry" />
        </mxCell>
        <mxCell id="2062" value="防护方案制定" style="verticalLabelPosition=bottom;html=1;verticalAlign=top;strokeColor=none;fillColor=#3399FF;shape=mxgraph.azure.azure_cache;dashed=1;fontFamily=Helvetica;fontSize=14;fontColor=#004C99" parent="1" vertex="1">
          <mxGeometry x="642.5" y="540" width="45" height="50" as="geometry" />
        </mxCell>
        <mxCell id="2063" value="恶意IP拦截" style="verticalLabelPosition=bottom;html=1;verticalAlign=top;strokeColor=none;fillColor=#3399FF;shape=mxgraph.azure.content_delivery_network;dashed=1;fontFamily=Helvetica;fontSize=14;fontColor=#004C99" parent="1" vertex="1">
          <mxGeometry x="820" y="225" width="50" height="32.5" as="geometry" />
        </mxCell>
        <mxCell id="2064" value="&lt;font color=&quot;#000000&quot;&gt;云原生&lt;br&gt;在野技术攻防&lt;/font&gt;" style="rounded=1;whiteSpace=wrap;html=1;dashed=1;strokeColor=#d6b656;strokeWidth=2;fillColor=#fff2cc;fontFamily=Helvetica;fontSize=14;opacity=75;verticalAlign=top;fontStyle=1" parent="1" vertex="1">
          <mxGeometry x="772.5" y="414" width="140" height="206" as="geometry" />
        </mxCell>
        <mxCell id="2066" value="恶意漏洞利用包拦截" style="verticalLabelPosition=bottom;html=1;verticalAlign=top;strokeColor=none;fillColor=#3399FF;shape=mxgraph.azure.service_bus;dashed=1;fontFamily=Helvetica;fontSize=14;fontColor=#004C99" parent="1" vertex="1">
          <mxGeometry x="825" y="291" width="45" height="50" as="geometry" />
        </mxCell>
        <mxCell id="2067" value="顽固病毒对抗" style="verticalLabelPosition=bottom;html=1;verticalAlign=top;strokeColor=none;fillColor=#3399FF;shape=mxgraph.azure.media_service;dashed=1;fontFamily=Helvetica;fontSize=14;fontColor=#004C99" parent="1" vertex="1">
          <mxGeometry x="820" y="460.5" width="45" height="50" as="geometry" />
        </mxCell>
        <mxCell id="2069" value="蜜罐控制中心" style="verticalLabelPosition=bottom;html=1;verticalAlign=top;strokeColor=none;fillColor=#3399FF;shape=mxgraph.azure.cloud;dashed=1;fontSize=14;fontColor=#004C99" parent="1" vertex="1">
          <mxGeometry x="60" y="386.37" width="80" height="65.25" as="geometry" />
        </mxCell>
        <mxCell id="2071" value="后台分析系统" style="verticalLabelPosition=bottom;html=1;verticalAlign=top;strokeColor=none;fillColor=#3399FF;shape=mxgraph.azure.laptop;dashed=1;fontFamily=Helvetica;fontSize=14;fontColor=#004C99" parent="1" vertex="1">
          <mxGeometry x="998" y="301" width="50" height="30" as="geometry" />
        </mxCell>
        <mxCell id="2072" value="情报售卖" style="verticalLabelPosition=bottom;html=1;verticalAlign=top;strokeColor=none;fillColor=#3399FF;shape=mxgraph.azure.certificate;dashed=1;fontFamily=Helvetica;fontSize=14;fontColor=#004C99" parent="1" vertex="1">
          <mxGeometry x="997.5" y="483" width="50" height="40" as="geometry" />
        </mxCell>
        <mxCell id="2073" value="安全服务" style="verticalLabelPosition=bottom;html=1;verticalAlign=top;strokeColor=none;fillColor=#3399FF;shape=mxgraph.azure.enterprise;dashed=1;fontFamily=Helvetica;fontSize=14;fontColor=#004C99" parent="1" vertex="1">
          <mxGeometry x="1008" y="650" width="30" height="50" as="geometry" />
        </mxCell>
        <mxCell id="2078" value="" style="arrow;html=1;endArrow=block;endFill=1;strokeColor=none;strokeWidth=4;fontFamily=Helvetica;fontSize=36;fontColor=#FFB366;fillColor=#FFB366;" parent="1" edge="1">
          <mxGeometry width="100" height="100" relative="1" as="geometry">
            <mxPoint x="707" y="510" as="sourcePoint" />
            <mxPoint x="787" y="510" as="targetPoint" />
          </mxGeometry>
        </mxCell>
        <mxCell id="2079" value="" style="arrow;html=1;endArrow=block;endFill=1;strokeColor=none;strokeWidth=4;fontFamily=Helvetica;fontSize=36;fontColor=#FFB366;fillColor=#FFB366;" parent="1" edge="1">
          <mxGeometry width="100" height="100" relative="1" as="geometry">
            <mxPoint x="714" y="270" as="sourcePoint" />
            <mxPoint x="794" y="270" as="targetPoint" />
          </mxGeometry>
        </mxCell>
        <mxCell id="2080" value="" style="arrow;html=1;endArrow=block;endFill=1;strokeColor=none;strokeWidth=4;fontFamily=Helvetica;fontSize=36;fontColor=#FFB366;fillColor=#FFB366;" parent="1" edge="1">
          <mxGeometry width="100" height="100" relative="1" as="geometry">
            <mxPoint x="910" y="393.38" as="sourcePoint" />
            <mxPoint x="990" y="393.38" as="targetPoint" />
          </mxGeometry>
        </mxCell>
        <mxCell id="2083" value="" style="arrow;html=1;endArrow=block;endFill=1;strokeColor=none;strokeWidth=4;fontFamily=Helvetica;fontSize=36;fontColor=#FFB366;fillColor=#FFB366;" parent="1" edge="1">
          <mxGeometry width="100" height="100" relative="1" as="geometry">
            <mxPoint x="534" y="624" as="sourcePoint" />
            <mxPoint x="614" y="624" as="targetPoint" />
          </mxGeometry>
        </mxCell>
        <mxCell id="2084" value="" style="arrow;html=1;endArrow=block;endFill=1;strokeColor=none;strokeWidth=4;fontFamily=Helvetica;fontSize=36;fontColor=#FFB366;fillColor=#FFB366;" parent="1" edge="1">
          <mxGeometry width="100" height="100" relative="1" as="geometry">
            <mxPoint x="347" y="487.5" as="sourcePoint" />
            <mxPoint x="427" y="487.5" as="targetPoint" />
          </mxGeometry>
        </mxCell>
        <mxCell id="2085" value="" style="arrow;html=1;endArrow=block;endFill=1;strokeColor=none;strokeWidth=4;fontFamily=Helvetica;fontSize=36;fontColor=#FFB366;fillColor=#FFB366;" parent="1" edge="1">
          <mxGeometry width="100" height="100" relative="1" as="geometry">
            <mxPoint x="150" y="426" as="sourcePoint" />
            <mxPoint x="230" y="426" as="targetPoint" />
          </mxGeometry>
        </mxCell>
        <mxCell id="4fIMKW8eh3_Yd_Rxw1QY-2092" value="" style="shape=image;html=1;verticalAlign=top;verticalLabelPosition=bottom;labelBackgroundColor=#ffffff;imageAspect=0;aspect=fixed;image=https://cdn3.iconfinder.com/data/icons/christmas-and-chocolate/700/25-128.png;hachureGap=4;pointerEvents=0;" vertex="1" parent="1">
          <mxGeometry x="230" y="221" width="80" height="80" as="geometry" />
        </mxCell>
        <mxCell id="4fIMKW8eh3_Yd_Rxw1QY-2091" value="" style="shape=image;html=1;verticalAlign=top;verticalLabelPosition=bottom;labelBackgroundColor=#ffffff;imageAspect=0;aspect=fixed;image=https://cdn3.iconfinder.com/data/icons/christmas-and-chocolate/700/25-128.png;hachureGap=4;pointerEvents=0;" vertex="1" parent="1">
          <mxGeometry x="290" y="228" width="70" height="70" as="geometry" />
        </mxCell>
        <mxCell id="4fIMKW8eh3_Yd_Rxw1QY-2094" value="阿里节点" style="rounded=1;whiteSpace=wrap;html=1;dashed=1;strokeColor=#d6b656;strokeWidth=2;fillColor=#fff2cc;fontFamily=Helvetica;fontSize=14;opacity=75;verticalAlign=top;fontStyle=1;" vertex="1" parent="1">
          <mxGeometry x="242.5" y="301" width="120" height="80" as="geometry" />
        </mxCell>
        <mxCell id="4fIMKW8eh3_Yd_Rxw1QY-2089" value="" style="shape=image;html=1;verticalAlign=top;verticalLabelPosition=bottom;labelBackgroundColor=#ffffff;imageAspect=0;aspect=fixed;image=https://cdn3.iconfinder.com/data/icons/christmas-and-chocolate/700/25-128.png;hachureGap=4;pointerEvents=0;imageBackground=none;" vertex="1" parent="1">
          <mxGeometry x="230" y="313.38" width="80" height="80" as="geometry" />
        </mxCell>
        <mxCell id="4fIMKW8eh3_Yd_Rxw1QY-2095" value="华为节点" style="rounded=1;whiteSpace=wrap;html=1;dashed=1;strokeColor=#d6b656;strokeWidth=2;fillColor=#fff2cc;fontFamily=Helvetica;fontSize=14;opacity=75;verticalAlign=top;fontStyle=1;" vertex="1" parent="1">
          <mxGeometry x="245.25" y="392.38" width="120" height="82.62" as="geometry" />
        </mxCell>
        <mxCell id="4fIMKW8eh3_Yd_Rxw1QY-2090" value="" style="shape=image;html=1;verticalAlign=top;verticalLabelPosition=bottom;labelBackgroundColor=#ffffff;imageAspect=0;aspect=fixed;image=https://cdn3.iconfinder.com/data/icons/christmas-and-chocolate/700/25-128.png;hachureGap=4;pointerEvents=0;" vertex="1" parent="1">
          <mxGeometry x="290" y="316" width="80" height="80" as="geometry" />
        </mxCell>
        <mxCell id="4fIMKW8eh3_Yd_Rxw1QY-2087" value="" style="shape=image;html=1;verticalAlign=top;verticalLabelPosition=bottom;labelBackgroundColor=#ffffff;imageAspect=0;aspect=fixed;image=https://cdn3.iconfinder.com/data/icons/christmas-and-chocolate/700/25-128.png;hachureGap=4;pointerEvents=0;" vertex="1" parent="1">
          <mxGeometry x="293.25" y="399" width="80" height="80" as="geometry" />
        </mxCell>
        <mxCell id="4fIMKW8eh3_Yd_Rxw1QY-2088" value="" style="shape=image;html=1;verticalAlign=top;verticalLabelPosition=bottom;labelBackgroundColor=#ffffff;imageAspect=0;aspect=fixed;image=https://cdn3.iconfinder.com/data/icons/christmas-and-chocolate/700/25-128.png;hachureGap=4;pointerEvents=0;" vertex="1" parent="1">
          <mxGeometry x="233.25" y="399" width="80" height="80" as="geometry" />
        </mxCell>
        <mxCell id="4fIMKW8eh3_Yd_Rxw1QY-2096" value="AWS节点" style="rounded=1;whiteSpace=wrap;html=1;dashed=1;strokeColor=#d6b656;strokeWidth=2;fillColor=#fff2cc;fontFamily=Helvetica;fontSize=14;opacity=75;verticalAlign=top;fontStyle=1" vertex="1" parent="1">
          <mxGeometry x="240" y="539" width="120" height="80" as="geometry" />
        </mxCell>
        <mxCell id="4fIMKW8eh3_Yd_Rxw1QY-2097" value="" style="shape=image;html=1;verticalAlign=top;verticalLabelPosition=bottom;labelBackgroundColor=#ffffff;imageAspect=0;aspect=fixed;image=https://cdn3.iconfinder.com/data/icons/christmas-and-chocolate/700/25-128.png;hachureGap=4;pointerEvents=0;" vertex="1" parent="1">
          <mxGeometry x="280" y="550" width="80" height="80" as="geometry" />
        </mxCell>
        <mxCell id="4fIMKW8eh3_Yd_Rxw1QY-2098" value="" style="shape=image;html=1;verticalAlign=top;verticalLabelPosition=bottom;labelBackgroundColor=#ffffff;imageAspect=0;aspect=fixed;image=https://cdn3.iconfinder.com/data/icons/christmas-and-chocolate/700/25-128.png;hachureGap=4;pointerEvents=0;" vertex="1" parent="1">
          <mxGeometry x="232.5" y="555" width="70" height="70" as="geometry" />
        </mxCell>
        <mxCell id="4fIMKW8eh3_Yd_Rxw1QY-2099" value="AZURE" style="rounded=1;whiteSpace=wrap;html=1;dashed=1;strokeColor=#d6b656;strokeWidth=2;fillColor=#fff2cc;fontFamily=Helvetica;fontSize=14;opacity=75;verticalAlign=top;fontStyle=1" vertex="1" parent="1">
          <mxGeometry x="243.25" y="640" width="120" height="80" as="geometry" />
        </mxCell>
        <mxCell id="4fIMKW8eh3_Yd_Rxw1QY-2103" value="" style="edgeStyle=none;curved=1;rounded=0;orthogonalLoop=1;jettySize=auto;html=1;endArrow=open;startSize=14;endSize=14;sourcePerimeterSpacing=8;targetPerimeterSpacing=8;" edge="1" parent="1" source="4fIMKW8eh3_Yd_Rxw1QY-2100" target="2019">
          <mxGeometry relative="1" as="geometry" />
        </mxCell>
        <mxCell id="4fIMKW8eh3_Yd_Rxw1QY-2100" value="" style="shape=image;html=1;verticalAlign=top;verticalLabelPosition=bottom;labelBackgroundColor=#ffffff;imageAspect=0;aspect=fixed;image=https://cdn3.iconfinder.com/data/icons/christmas-and-chocolate/700/25-128.png;hachureGap=4;pointerEvents=0;" vertex="1" parent="1">
          <mxGeometry x="230" y="650" width="80" height="80" as="geometry" />
        </mxCell>
        <mxCell id="4fIMKW8eh3_Yd_Rxw1QY-2101" value="" style="shape=image;html=1;verticalAlign=top;verticalLabelPosition=bottom;labelBackgroundColor=#ffffff;imageAspect=0;aspect=fixed;image=https://cdn3.iconfinder.com/data/icons/christmas-and-chocolate/700/25-128.png;hachureGap=4;pointerEvents=0;" vertex="1" parent="1">
          <mxGeometry x="290" y="657" width="70" height="70" as="geometry" />
        </mxCell>
        <mxCell id="4fIMKW8eh3_Yd_Rxw1QY-2102" value="网络情报" style="rounded=1;whiteSpace=wrap;html=1;dashed=1;strokeColor=#82b366;strokeWidth=2;fillColor=#d5e8d4;fontFamily=Helvetica;fontSize=14;opacity=75;verticalAlign=top;fontStyle=1" vertex="1" parent="1">
          <mxGeometry x="413" y="201.5" width="140" height="229" as="geometry" />
        </mxCell>
        <mxCell id="4fIMKW8eh3_Yd_Rxw1QY-2104" value="国外蜜罐控制中心" style="verticalLabelPosition=bottom;html=1;verticalAlign=top;strokeColor=none;fillColor=#3399FF;shape=mxgraph.azure.cloud;dashed=1;fontSize=14;fontColor=#004C99" vertex="1" parent="1">
          <mxGeometry x="70" y="559.75" width="80" height="65.25" as="geometry" />
        </mxCell>
        <mxCell id="4fIMKW8eh3_Yd_Rxw1QY-2105" value="" style="arrow;html=1;endArrow=block;endFill=1;strokeColor=none;strokeWidth=4;fontFamily=Helvetica;fontSize=36;fontColor=#FFB366;fillColor=#FFB366;" edge="1" parent="1">
          <mxGeometry width="100" height="100" relative="1" as="geometry">
            <mxPoint x="150" y="600" as="sourcePoint" />
            <mxPoint x="230" y="600" as="targetPoint" />
          </mxGeometry>
        </mxCell>
        <mxCell id="4fIMKW8eh3_Yd_Rxw1QY-2106" value="" style="arrow;html=1;endArrow=block;endFill=1;strokeColor=none;strokeWidth=4;fontFamily=Helvetica;fontSize=36;fontColor=#FFB366;fillColor=#FFB366;" edge="1" parent="1">
          <mxGeometry width="100" height="100" relative="1" as="geometry">
            <mxPoint x="100" y="570" as="sourcePoint" />
            <mxPoint x="100" y="481.6199999999999" as="targetPoint" />
            <Array as="points">
              <mxPoint x="100" y="550" />
              <mxPoint x="100" y="570" />
            </Array>
          </mxGeometry>
        </mxCell>
        <mxCell id="2051" value="漏洞包利用情报" style="verticalLabelPosition=bottom;html=1;verticalAlign=top;strokeColor=none;fillColor=#3399FF;shape=mxgraph.azure.hdinsight;dashed=1;fontSize=14;fontColor=#004C99" parent="1" vertex="1">
          <mxGeometry x="458" y="326" width="50" height="50" as="geometry" />
        </mxCell>
        <mxCell id="4fIMKW8eh3_Yd_Rxw1QY-2107" value="IP威胁情报" style="aspect=fixed;html=1;points=[];align=center;image;fontSize=12;image=img/lib/azure2/networking/IP_Groups.svg;hachureGap=4;pointerEvents=0;fillColor=default;gradientColor=none;labelBackgroundColor=none;" vertex="1" parent="1">
          <mxGeometry x="448.5" y="235" width="67" height="52" as="geometry" />
        </mxCell>
        <mxCell id="4fIMKW8eh3_Yd_Rxw1QY-2110" value="攻击技术与策略" style="sketch=0;points=[[0.015,0.015,0],[0.985,0.015,0],[0.985,0.985,0],[0.015,0.985,0],[0.25,0,0],[0.5,0,0],[0.75,0,0],[1,0.25,0],[1,0.5,0],[1,0.75,0],[0.75,1,0],[0.5,1,0],[0.25,1,0],[0,0.75,0],[0,0.5,0],[0,0.25,0]];verticalLabelPosition=bottom;html=1;verticalAlign=top;aspect=fixed;align=center;pointerEvents=1;shape=mxgraph.cisco19.rect;prIcon=anti_malware2;fillColor=#FAFAFA;strokeColor=#005073;hachureGap=4;labelBackgroundColor=none;" vertex="1" parent="1">
          <mxGeometry x="457" y="680" width="50" height="50" as="geometry" />
        </mxCell>
        <mxCell id="4fIMKW8eh3_Yd_Rxw1QY-2111" value="样本分析" style="verticalLabelPosition=bottom;sketch=0;html=1;fillColor=#282828;strokeColor=none;verticalAlign=top;pointerEvents=1;align=center;shape=mxgraph.cisco_safe.security_icons.malware_sandbox;hachureGap=4;labelBackgroundColor=none;" vertex="1" parent="1">
          <mxGeometry x="457" y="609" width="50" height="31" as="geometry" />
        </mxCell>
        <mxCell id="2077" value="" style="arrow;html=1;endArrow=block;endFill=1;strokeColor=none;strokeWidth=4;fontFamily=Helvetica;fontSize=36;fontColor=#FFB366;fillColor=#FFB366;" parent="1" edge="1">
          <mxGeometry width="100" height="100" relative="1" as="geometry">
            <mxPoint x="527" y="360" as="sourcePoint" />
            <mxPoint x="607" y="360" as="targetPoint" />
          </mxGeometry>
        </mxCell>
        <mxCell id="4fIMKW8eh3_Yd_Rxw1QY-2112" value="攻击态势分析" style="rounded=1;whiteSpace=wrap;html=1;dashed=1;strokeColor=#d79b00;strokeWidth=2;fillColor=#ffe6cc;fontFamily=Helvetica;fontSize=14;opacity=75;verticalAlign=top;fontStyle=1" vertex="1" parent="1">
          <mxGeometry x="773" y="637.75" width="140" height="134.5" as="geometry" />
        </mxCell>
        <mxCell id="4fIMKW8eh3_Yd_Rxw1QY-2113" value="高危漏洞防护" style="sketch=0;points=[[0.015,0.015,0],[0.985,0.015,0],[0.985,0.985,0],[0.015,0.985,0],[0.25,0,0],[0.5,0,0],[0.75,0,0],[1,0.25,0],[1,0.5,0],[1,0.75,0],[0.75,1,0],[0.5,1,0],[0.25,1,0],[0,0.75,0],[0,0.5,0],[0,0.25,0]];verticalLabelPosition=bottom;html=1;verticalAlign=top;aspect=fixed;align=center;pointerEvents=1;shape=mxgraph.cisco19.rect;prIcon=anti_malware;fillColor=#FAFAFA;strokeColor=#005073;hachureGap=4;labelBackgroundColor=none;" vertex="1" parent="1">
          <mxGeometry x="817.5" y="540" width="50" height="50" as="geometry" />
        </mxCell>
        <mxCell id="2081" value="" style="arrow;html=1;endArrow=block;endFill=1;strokeColor=none;strokeWidth=4;fontFamily=Helvetica;fontSize=36;fontColor=#FFB366;fillColor=#FFB366;" parent="1" edge="1">
          <mxGeometry width="100" height="100" relative="1" as="geometry">
            <mxPoint x="912.5" y="600" as="sourcePoint" />
            <mxPoint x="992.5" y="600" as="targetPoint" />
          </mxGeometry>
        </mxCell>
        <mxCell id="4fIMKW8eh3_Yd_Rxw1QY-2114" value="攻击预警" style="shape=image;html=1;verticalAlign=top;verticalLabelPosition=bottom;labelBackgroundColor=none;imageAspect=0;aspect=fixed;image=https://cdn2.iconfinder.com/data/icons/ios-14-custom-application/62/application-13-128.png;hachureGap=4;pointerEvents=0;fillColor=default;gradientColor=none;" vertex="1" parent="1">
          <mxGeometry x="808" y="670.5" width="59.5" height="59.5" as="geometry" />
        </mxCell>
        <mxCell id="2082" value="" style="arrow;html=1;endArrow=block;endFill=1;strokeColor=none;strokeWidth=4;fontFamily=Helvetica;fontSize=36;fontColor=#FFB366;fillColor=#FFB366;" parent="1" edge="1">
          <mxGeometry width="100" height="100" relative="1" as="geometry">
            <mxPoint x="714" y="703" as="sourcePoint" />
            <mxPoint x="787" y="703.25" as="targetPoint" />
          </mxGeometry>
        </mxCell>
      </root>
    </mxGraphModel>
  </diagram>
</mxfile>
